<?xml version="1.0" encoding="utf-8"?>
<!-- Generated by IcoMoon.io -->
<!DOCTYPE svg PUBLIC "-//W3C//DTD SVG 1.1//EN" "http://www.w3.org/Graphics/SVG/1.1/DTD/svg11.dtd">
<svg version="1.1" xmlns="http://www.w3.org/2000/svg" xmlns:xlink="http://www.w3.org/1999/xlink" width="1024" height="1024" viewBox="0 0 1024 1024"><g id="icomoon-ignore">
</g>
<path d="M928 0h-704c-53.024 0-96 42.944-96 96v64h-32c-53.024 0-96 42.944-96 96v640c0 70.688 57.312 128 128 128h768c70.688 0 128-57.312 128-128v-800c0-53.056-43.008-96-96-96zM960 896c0 35.264-28.736 64-64 64h-768c-35.296 0-64-28.736-64-64v-640c0-17.664 14.336-32 32-32h32v640c0 17.696 14.304 32 32 32s32-14.304 32-32v-768c0-17.664 14.336-32 32-32h704c17.632 0 32 14.336 32 32v800zM623.936 416.16c-8.8 0-16-7.168-16-16s7.2-16 16-16h256c8.864 0 16 7.168 16 16s-7.136 16-16 16h-256zM623.936 320.16c-8.8 0-16-7.168-16-16s7.2-16 16-16h256c8.864 0 16 7.168 16 16s-7.136 16-16 16h-256zM623.936 224.16c-8.8 0-16-7.168-16-16s7.2-16 16-16h256c8.864 0 16 7.168 16 16s-7.136 16-16 16h-256zM528 864.128c8.832 0 16 7.2 16 16 0 8.864-7.2 16-16 16h-256c-8.832 0-16-7.136-16-16 0-8.8 7.168-16 16-16h256zM528 768.128c8.832 0 16 7.2 16 16 0 8.864-7.2 16-16 16h-256c-8.832 0-16-7.136-16-16 0-8.8 7.168-16 16-16h256zM528 672.128c8.832 0 16 7.2 16 16 0 8.864-7.2 16-16 16h-256c-8.832 0-16-7.136-16-16 0-8.8 7.168-16 16-16h256zM880 864.128c8.8 0 16 7.2 16 16 0 8.864-7.2 16-16 16h-256c-8.864 0-16-7.136-16-16 0-8.8 7.136-16 16-16h256zM880 768.128c8.8 0 16 7.2 16 16 0 8.864-7.2 16-16 16h-256c-8.864 0-16-7.136-16-16 0-8.8 7.136-16 16-16h256zM880 672.128c8.8 0 16 7.2 16 16 0 8.864-7.2 16-16 16h-256c-8.864 0-16-7.136-16-16 0-8.8 7.136-16 16-16h256zM880 480.128c8.8 0 16 7.168 16 16s-7.2 16-16 16h-608c-8.832 0-16-7.168-16-16s7.168-16 16-16h608zM880 576.128c8.8 0 16 7.2 16 16 0 8.864-7.2 16-16 16h-608c-8.832 0-16-7.136-16-16 0-8.8 7.168-16 16-16h608zM288 416h224c17.696 0 32-14.304 32-32v-223.872c0-17.696-14.304-32-32-32h-224c-17.696 0-32 14.304-32 32v223.872c0 17.664 14.304 32 32 32zM320 192h160v160h-160v-160z"></path>
</svg>
